<svg xmlns="http://www.w3.org/2000/svg" version="1.1" width="400px" height="560px" viewBox="0 0 400 560">
  <path stroke="#4E385E" stroke-width="1" fill="#AA9EB4" d="M197.375,265C198.4375,262.5,212.4375,266.5,214.625,267.375L230.4375,273.75C232.625,274.625,245.5625,280.75,244.5625,283.25C229.375,321,215.5,344.3125,186.9375,393.0625C185.9375,395.5625,183.375,396.875,181.1875,396L165.3125,389.625C163.125,388.75,162.1875,386,163.1875,383.5C179,314,186,304.5,197.375,265z" />
  <path stroke="#4E385E" stroke-width="1" fill="#AA9EB4" d="M165.25,379.5C167.25,379.5625,168,384.8125,168,386.625L167.5625,399.6875C167.5,401.5,166.1875,409.625,164.1875,409.5625C131.1875,408.5625,97.8125,400.875,64.8125,399.875C62.75,399.8125,61.1875,398.3125,61.25,396.5L61.625,383.4375C61.6875,381.625,63.375,380.25,65.375,380.3125C98.6875,380,135.125,376.875,165.25,379.5z" />
  <path stroke="none" stroke-width="1" fill="#8F7F9A" d="M148.0625,378.25L149.6875,408.6875C148.875,408.3125,145.125,408.75,142.0625,408C138.6875,407.75,137.8125,397.4375,137.8125,392.5C137.75,387.5625,138.875,381.3125,142,378.25C146.8125,378.3125,143.25,378.1875,148.0625,378.25z" />
  <path stroke="#4E385E" stroke-width="1" fill="#AA9EB4" d="M14.0625,438C18.375,439.6875,26.1875,443.0625,29.6875,444.625C25.9375,451.375,21.375,458.125,14.5625,464.5C10.9375,467.75,6.375,468.8125,6.1875,463.3125C8.5625,457.1875,13.875,445.0625,14.0625,438" />
  <path stroke="#4E385E" stroke-width="1" fill="#AA9EB4" d="M43.875,386.375C44.625,385.3125,55,384.9375,56.0625,385.6875L63.6875,391.4375C64.75,392.25,67.75,400.25,66.9375,401.3125C60.25,411.0625,43.4375,431.8125,32.75,441.125C30.375,443.0625,18.0625,435.375,15.25,432.875C23.8125,425.125,33.8125,402.375,43.875,386.375z" />
  <path stroke="#5F4573" stroke-width="1" fill="#887697" d="M15.375,457.8125C19.875,460.625,21.25,466.5625,18.4375,471.125C15.625,475.625,9.6875,477,5.125,474.1875C0.625,471.375,-0.75,465.4375,2.0625,460.875C4.875,456.375,10.8125,455,15.375,457.8125" />
  <path stroke="#5F4573" stroke-width="1" fill="#887697" d="M13.6875,457C18.5625,459,20.9375,464.5,19,469.4375C17,474.3125,11.4375,476.625,6.5625,474.6875C1.6875,472.6875,-0.6875,467.1875,1.3125,462.3125C3.25,457.375,8.8125,455.0625,13.6875,457" />
  <path stroke="#5F4573" stroke-width="1" fill="#887697" d="M29.125,426.5625C35.875,429.25,39.125,436.9375,36.375,443.625C33.6875,450.3125,26.0625,453.5625,19.375,450.875C12.625,448.1875,9.4375,440.5,12.125,433.8125C14.8125,427.125,22.4375,423.875,29.125,426.5625" />
  <path stroke="#5F4573" stroke-width="1" fill="#887697" d="M50.6875,370.5625C61.1875,366.0625,73.375,371,77.875,381.5C82.375,392.0625,77.4375,404.25,66.875,408.75C56.375,413.1875,44.1875,408.3125,39.6875,397.75C35.25,387.25,40.125,375.0625,50.6875,370.5625" />
  <path stroke="#5F4573" stroke-width="1" fill="#887697" d="M157.75,366.6875C172.5,360.4375,189.5625,367.3125,195.875,382.0625C202.125,396.8125,195.25,413.875,180.5,420.1875C165.6875,426.4375,148.625,419.5625,142.375,404.8125C136.0625,390.0625,142.9375,373,157.75,366.6875" />
  <path stroke="#4E385E" stroke-width="1" fill="#AA9EB4" d="M277.75,531.6875C277.6875,527.125,277.875,518.5625,278.0625,514.75C285.6875,515.6875,293.6875,517.375,302.125,521.3125C306.5,523.5,309.1875,527.3125,304.1875,529.5625C297.5625,529.625,284.375,529.25,277.75,531.6875" />
  <path stroke="#4E385E" stroke-width="1" fill="#63556F" d="M86,154C86,69,155.1875,0,240.5,0C325.875,0,395,69,395,154C395,239.0625,325.875,308,240.5,308C155.1875,308,86,239.0625,86,154" />
  <path stroke="none" stroke-width="1" fill="#BCAACB" d="M88.5,153.5C88.5,70.125,156.125,2.5,239.5,2.5C322.9375,2.5,390.5,70.125,390.5,153.5C390.5,236.9375,322.9375,304.5,239.5,304.5C156.125,304.5,88.5,236.9375,88.5,153.5" />
  <path stroke="none" stroke-width="1" fill="#404040" d="M183.5,265C183.5,246.5,201.6875,231.5,224,231.5C246.375,231.5,264.5,246.5,264.5,265C264.5,283.5,246.375,298.5,224,298.5C201.6875,298.5,183.5,283.5,183.5,265" />
  <path stroke="#4E385E" stroke-width="1" fill="#AA9EB4" d="M201.6875,289.6875C200.75,287.125,213.875,280.8125,216.125,280.0625L232.1875,274.3125C234.4375,273.5625,248.1875,269.5625,249.0625,272.125C262.6875,310.4375,267.8125,337.0625,278.6875,392.5C279.625,395.0625,278.5625,397.75,276.3125,398.5625L260.25,404.25C258,405.0625,255.5,403.625,254.5625,401.0625C220.375,338.5625,219.3125,326.8125,201.6875,289.6875z" />
  <path stroke="none" stroke-width="1" fill="#9889A3" d="M205.3125,296.5625L250.75,276.5625C252.375,281.5,254,286.4375,255.625,291.3125C256,300.1875,244.125,307.875,236.625,311C229.125,314.0625,215.1875,315.1875,210.625,309.6875C208.25,303,207.6875,303.3125,205.3125,296.5625z" />
  <path stroke="#4E385E" stroke-width="1" fill="#AA9EB4" d="M254.75,406.6875C255.625,404.875,260.75,406.1875,262.375,406.9375L274.25,412.4375C275.875,413.1875,282.875,417.625,282,419.4375C268.1875,449.4375,248,477.0625,234.1875,507.0625C233.3125,508.9375,231.3125,509.8125,229.6875,509.0625L217.8125,503.5625C216.1875,502.8125,215.5625,500.75,216.4375,498.875C229.1875,468.125,240.5625,433.375,254.75,406.6875z" />
  <path stroke="none" stroke-width="1" fill="#8F7F9A" d="M246.875,422L275.5,432.4375C274.875,433,273.8125,436.6875,271.9375,439.1875C270.3125,442.1875,260.5625,438.9375,256,437.0625C251.4375,435.125,246.0625,431.6875,244.5625,427.625C246.4375,423.1875,244.9375,426.4375,246.875,422z" />
  <path stroke="#4E385E" stroke-width="1" fill="#AA9EB4" d="M218.6875,523.375C217.4375,523.0625,213.1875,513.5625,213.5,512.3125L216,503.0625C216.3125,501.8125,222.625,496.0625,223.9375,496.375C235.4375,498.9375,261,506.8125,273.625,513.1875C276.3125,514.6875,273.8125,529,272.5,532.5C262.1875,527.5,237.3125,526.6875,218.6875,523.375z" />
  <path stroke="#5F4573" stroke-width="1" fill="#887697" d="M295.625,523.125C296.5,517.8125,301.5625,514.3125,306.8125,515.25C312.0625,516.1875,315.5625,521.1875,314.625,526.4375C313.6875,531.6875,308.6875,535.1875,303.4375,534.3125C298.1875,533.375,294.6875,528.375,295.625,523.125" />
  <path stroke="#5F4573" stroke-width="1" fill="#887697" d="M296,525.5C296,520.3125,300.3125,516,305.5,516C310.75,516,315,520.3125,315,525.5C315,530.75,310.75,535,305.5,535C300.3125,535,296,530.75,296,525.5" />
  <path stroke="#5F4573" stroke-width="1" fill="#887697" d="M262,521C262,513.875,267.875,508,275,508C282.1875,508,288,513.875,288,521C288,528.1875,282.1875,534,275,534C267.875,534,262,528.1875,262,521" />
  <path stroke="#5F4573" stroke-width="1" fill="#887697" d="M202,509C202,497.4375,211.4375,488,223,488C234.625,488,244,497.4375,244,509C244,520.625,234.625,530,223,530C211.4375,530,202,520.625,202,509" />
  <path stroke="#5F4573" stroke-width="1" fill="#887697" d="M241,409C241,393,254,380,270,380C286.0625,380,299,393,299,409C299,425.0625,286.0625,438,270,438C254,438,241,425.0625,241,409" />
  <path stroke="#5F4573" stroke-width="1" fill="#887697" d="M188,273.5C188,254.5,203.6875,239,223,239C242.375,239,258,254.5,258,273.5C258,292.5625,242.375,308,223,308C203.6875,308,188,292.5625,188,273.5" />
  <path stroke="none" stroke-width="1" fill="#140E18" d="M341.5,152C341.5,108.125,352.5,72.5,366,72.5C379.5625,72.5,390.5,108.125,390.5,152C390.5,195.9375,379.5625,231.5,366,231.5C352.5,231.5,341.5,195.9375,341.5,152" />
  <path stroke="none" stroke-width="1" fill="#63556F" d="M347.5,152C347.5,110.3125,358.25,76.5,371.5,76.5C384.8125,76.5,395.5,110.3125,395.5,152C395.5,193.75,384.8125,227.5,371.5,227.5C358.25,227.5,347.5,193.75,347.5,152" />
  <path stroke="#4E385E" stroke-width="1" fill="#FFF2CC" d="M358,152.5C358,116.375,365.875,87,375.5,87C385.1875,87,393,116.375,393,152.5C393,188.6875,385.1875,218,375.5,218C365.875,218,358,188.6875,358,152.5" />
</svg>