<svg xmlns="http://www.w3.org/2000/svg" version="1.1" width="313px" height="310px" viewBox="0 0 313 310">
    <path stroke="none" stroke-width="1" fill="#8E6DA7" d="M-0.5,155C-0.5,69.125,69.125,-0.5,155,-0.5C240.9375,-0.5,310.5,69.125,310.5,155C310.5,240.9375,240.9375,310.5,155,310.5C69.125,310.5,-0.5,240.9375,-0.5,155" />
    <path stroke="none" stroke-width="1" fill="#C0AECE" d="M2.5,155C2.5,70.8125,70.8125,2.5,155,2.5C239.25,2.5,307.5,70.8125,307.5,155C307.5,239.25,239.25,307.5,155,307.5C70.8125,307.5,2.5,239.25,2.5,155" />
    <path stroke="none" stroke-width="1" fill="#404040" d="M98.5,267.5C98.5,248.75,116.6875,233.5,139,233.5C161.375,233.5,179.5,248.75,179.5,267.5C179.5,286.3125,161.375,301.5,139,301.5C116.6875,301.5,98.5,286.3125,98.5,267.5" />
    <path stroke="none" stroke-width="1" fill="#5F4573" d="M263.5,155C263.5,112.75,274.5,78.5,288,78.5C301.5625,78.5,312.5,112.75,312.5,155C312.5,197.25,301.5625,231.5,288,231.5C274.5,231.5,263.5,197.25,263.5,155" />
</svg>