<svg xmlns="http://www.w3.org/2000/svg" version="1.1" width="123px" height="116px" viewBox="0 0 123 116">
  <polygon points="39.625,61.125 1.8125,88 28.6875,50.1875" style="fill:#D9D9D9;stroke:none;stroke-width:1" />
  <polygon points="39.625,61.125 1.8125,88 28.6875,50.1875" style="fill:none;stroke:#7F7F7F;stroke-width:1" />
  <polygon points="34.5,52.125 3.625,85.875 31.75,49.8125" style="fill:#FFFFFF;stroke:none;stroke-width:1" />
  <polygon points="36,56.25 2.4375,87.5625 40.625,62.0625" style="fill:#BFBFBF;stroke:none;stroke-width:1" />
  <polygon points="34.6875,61.625 1.8125,88.0625 37,64.5625" style="fill:#A6A6A6;stroke:none;stroke-width:1" />
  <path stroke="#3A2B45" stroke-width="1.3125" fill="#937DA3" d="M20.875,30.0625C26.375,24.5625,39.5625,28.75,50.25,39.5C61,50.25,65.25,63.4375,59.75,68.9375C54.25,74.4375,41.0625,70.25,30.3125,59.5C19.5625,48.75,15.3125,35.5625,20.875,30.0625" />
  <path stroke="#3A2B45" stroke-width="1.3125" fill="#937DA3" d="M69.25,6.4375L83.25,20.375 56.3125,61C56,61.6875,54.875,62.625,54.375,63.125C50.5,67,38.9375,60.1875,34.25,55.75C29.5,51.3125,24.25,40.9375,26.125,36.4375C26.4375,35.9375,26.5625,35.25,27.1875,34.875L69.25,6.4375z" />
  <path stroke="#3A2B45" stroke-width="1.3125" fill="#937DA3" d="M63.625,2C66.4375,-0.875,74.1875,2.1875,80.875,8.875C87.5625,15.625,90.6875,23.3125,87.8125,26.1875C84.9375,29.0625,77.1875,26,70.5,19.25C63.8125,12.5625,60.75,4.875,63.625,2" />
</svg>