<svg xmlns="http://www.w3.org/2000/svg" version="1.1" width="637px" height="637px" viewBox="0 0 637 637">
    <path stroke="#FFFFFF" stroke-width="8" fill="#593E6E" d="M183.125,131.25C142.4375,143.0625,119.0625,185.5625,130.875,226.25C142.75,266.875,185.25,290.25,225.875,278.4375C266.5625,266.625,289.9375,224.0625,278.125,183.4375C266.25,142.8125,223.75,119.4375,183.125,131.25z M130.1875,15.3125L165.5625,5.0625C173.625,2.6875,182,7.3125,184.3125,15.3125L194.5,50.1875 207.4375,49.8125C217.5625,50,227.625,51.1875,237.375,53.3125L247.9375,56.125 265.4375,24.25C269.4375,16.9375,278.625,14.25,286,18.3125L318.25,36.0625C325.5625,40.0625,328.25,49.25,324.25,56.5625L306.75,88.4375 314.75,95.8125C321.8125,102.9375,328.1875,110.75,333.8125,119.25L340.375,130.375 375.25,120.25C383.25,117.875,391.6875,122.5,394,130.5625L404.3125,165.9375C406.625,173.9375,402,182.3125,394,184.6875L359.125,194.8125 359.5625,207.75C359.375,217.9375,358.1875,227.9375,356.0625,237.75L353.1875,248.25 385.0625,265.75C392.375,269.8125,395.0625,279,391.0625,286.3125L373.3125,318.625C369.25,325.9375,360.0625,328.625,352.75,324.5625L320.875,307.0625 313.5,315.125C306.4375,322.125,298.5625,328.5,290.125,334.125L278.9375,340.75 289.0625,375.5625C291.4375,383.625,286.8125,392,278.8125,394.375L243.4375,404.625C235.375,406.9375,227,402.375,224.625,394.3125L214.5,359.5 201.5625,359.875C191.375,359.6875,181.375,358.5,171.625,356.375L161.0625,353.5625 143.5625,385.375C139.5625,392.75,130.375,395.375,123,391.375L90.75,373.625C83.4375,369.625,80.75,360.375,84.75,353.0625L102.25,321.25 94.25,313.875C87.1875,306.75,80.8125,298.9375,75.1875,290.4375L68.5625,279.3125 33.75,289.4375C25.6875,291.75,17.3125,287.125,15,279.125L4.6875,243.75C2.375,235.75,7,227.3125,15,225L49.875,214.875 49.4375,201.875C49.625,191.75,50.8125,181.6875,52.9375,171.9375L55.8125,161.4375 23.9375,143.9375C16.625,139.875,13.9375,130.6875,17.9375,123.375L35.6875,91.0625C37.6875,87.4375,41,84.9375,44.75,83.8125C48.4375,82.75,52.5625,83.0625,56.25,85.125L88.125,102.625 95.5,94.5625C102.5625,87.5,110.4375,81.125,118.875,75.5L130.0625,68.9375 119.875,34.0625C117.5625,26.0625,122.1875,17.625,130.1875,15.3125z" />
  </svg>