<svg xmlns="http://www.w3.org/2000/svg" version="1.1" width="86px" height="67px" viewBox="0 0 86 67">
  <polygon points="0,0 0,61 60,61 60,0" style="fill:none;stroke:none;stroke-width:1" />
  <path stroke="#2F528F" stroke-width="1" fill="#4472C4" d="M18,31.75C12.375,31.75,7.75,36.375,7.75,42C7.75,47.6875,12.375,52.3125,18,52.3125C23.6875,52.3125,28.3125,47.6875,28.3125,42C28.3125,36.375,23.6875,31.75,18,31.75z M18,29C25.1875,29,31,34.875,31,42C31,49.1875,25.1875,55,18,55C10.875,55,5,49.1875,5,42C5,34.875,10.875,29,18,29z" />
  <polygon points="16.125,28 18.9375,28 18.9375,40.5625 31,40.5625 31,43.5 18.9375,43.5 18.9375,56 16.125,56 16.125,43.5 4,43.5 4,40.5625 16.125,40.5625" style="fill:#FF0000;stroke:none;stroke-width:1" />
  <polygon points="16.125,28 18.9375,28 18.9375,40.5625 31,40.5625 31,43.5 18.9375,43.5 18.9375,56 16.125,56 16.125,43.5 4,43.5 4,40.5625 16.125,40.5625" style="fill:none;stroke:#C00000;stroke-width:1" />
  <polygon points="33.9375,30 17.8125,41.5 29.25,25.375" style="fill:#D9D9D9;stroke:none;stroke-width:1" />
  <polygon points="33.9375,30 17.8125,41.5 29.25,25.375" style="fill:none;stroke:#7F7F7F;stroke-width:1" />
  <polygon points="31.75,26.1875 18.5625,40.5625 30.5625,25.1875" style="fill:#FFFFFF;stroke:none;stroke-width:1" />
  <polygon points="32.375,27.9375 18.0625,41.3125 34.375,30.4375" style="fill:#BFBFBF;stroke:none;stroke-width:1" />
  <polygon points="31.8125,30.25 17.8125,41.5 32.8125,31.4375" style="fill:#A6A6A6;stroke:none;stroke-width:1" />
  <path stroke="#3A2B45" stroke-width="1.3125" fill="#937DA3" d="M25.9375,16.75C28.25,14.375,33.875,16.1875,38.5,20.75C43.0625,25.375,44.875,31,42.5625,33.375C40.1875,35.6875,34.5625,33.875,30,29.3125C25.375,24.6875,23.5625,19.0625,25.9375,16.75" />
  <path stroke="#3A2B45" stroke-width="1.3125" fill="#937DA3" d="M46.625,6.625L52.5625,12.625 41.0625,29.9375C40.9375,30.25,40.4375,30.625,40.25,30.875C38.5625,32.5,33.625,29.625,31.625,27.6875C29.625,25.8125,27.375,21.375,28.1875,19.5C28.3125,19.25,28.375,18.9375,28.625,18.8125L46.625,6.625z" />
  <path stroke="#3A2B45" stroke-width="1.3125" fill="#937DA3" d="M44.1875,4.75C45.375,3.5,48.6875,4.875,51.5625,7.6875C54.4375,10.5625,55.75,13.875,54.5,15.0625C53.3125,16.3125,50,15,47.125,12.125C44.3125,9.25,42.9375,6,44.1875,4.75" />
</svg>
