<svg xmlns="http://www.w3.org/2000/svg" version="1.1" width="163px" height="163px" viewBox="0 0 163 163">
  <polygon points="141,0 141,141 0,141 0,0" style="fill-opacity:0;stroke:none;stroke-width:1" />
  <path stroke="#2F528F" stroke-width="1" fill="#4472C4" d="M84.625,122.3125L34.5625,74.75C32.0625,72.4375,32,68.5625,34.3125,66.125C34.375,66,34.4375,65.9375,34.5625,65.875L84.625,18.375C87.125,16,91,16.1875,93.3125,18.5625C94.375,19.75,95,21.1875,95,22.75L95,117.9375C95,121.3125,92.3125,124,88.875,124C87.3125,124,85.75,123.375,84.625,122.3125z" />
  <polygon points="141,0 141,141 0,141 0,0" style="fill:#000;fill-opacity:0;stroke:#F2F2F2;stroke-width:1" />
</svg>