<svg xmlns="http://www.w3.org/2000/svg" version="1.1" width="163px" height="163px" viewBox="0 0 163 163">
	<polygon points="141,0 141,141 0,141 0,0" style="fill:#000;fill-opacity:0;stroke:#F2F2F2;stroke-width:1" />
	<path stroke="none" stroke-width="1" fill="#6B567A" d="M90.25,37.1875L90.25,40.9375 93.8125,40.9375 93.8125,37.1875 90.25,37.1875z M46.25,37.1875L46.25,40.9375 49.8125,40.9375 49.8125,37.1875 46.25,37.1875z M90.25,31.4375L90.25,35.1875 93.8125,35.1875 93.8125,31.4375 90.25,31.4375z M46.25,31.4375L46.25,35.1875 49.8125,35.1875 49.8125,31.4375 46.25,31.4375z M90.25,25.6875L90.25,29.4375 93.8125,29.4375 93.8125,25.6875 90.25,25.6875z M46.25,25.6875L46.25,29.4375 49.8125,29.4375 49.8125,25.6875 46.25,25.6875z M90.25,19.9375L90.25,23.6875 93.8125,23.6875 93.8125,19.9375 90.25,19.9375z M46.25,19.9375L46.25,23.6875 49.8125,23.6875 49.8125,19.9375 46.25,19.9375z M90.25,14.1875L90.25,17.9375 93.8125,17.9375 93.8125,14.1875 90.25,14.1875z M46.25,14.1875L46.25,17.9375 49.8125,17.9375 49.8125,14.1875 46.25,14.1875z M90.25,8.375L90.25,12.1875 93.8125,12.1875 93.8125,8.375 90.25,8.375z M46.25,8.375L46.25,12.1875 49.8125,12.1875 49.8125,8.375 46.25,8.375z M44.5,6.5L95.5,6.5 95.5,42.5 44.5,42.5 44.5,6.5z" />
	<path stroke="none" stroke-width="1" fill="#AFA0BC" d="M52.5,12.125C52.5,10.6875,53.6875,9.5,55.125,9.5L84.9375,9.5C86.375,9.5,87.5,10.6875,87.5,12.125L87.5,36.9375C87.5,38.375,86.375,39.5,84.9375,39.5L55.125,39.5C53.6875,39.5,52.5,38.375,52.5,36.9375z" />
	<path stroke="none" stroke-width="1" fill="#6B567A" d="M101.25,52.1875L101.25,55.9375 104.8125,55.9375 104.8125,52.1875 101.25,52.1875z M57.25,52.1875L57.25,55.9375 60.8125,55.9375 60.8125,52.1875 57.25,52.1875z M101.25,46.4375L101.25,50.1875 104.8125,50.1875 104.8125,46.4375 101.25,46.4375z M57.25,46.4375L57.25,50.1875 60.8125,50.1875 60.8125,46.4375 57.25,46.4375z M101.25,40.6875L101.25,44.4375 104.8125,44.4375 104.8125,40.6875 101.25,40.6875z M57.25,40.6875L57.25,44.4375 60.8125,44.4375 60.8125,40.6875 57.25,40.6875z M101.25,34.9375L101.25,38.6875 104.8125,38.6875 104.8125,34.9375 101.25,34.9375z M57.25,34.9375L57.25,38.6875 60.8125,38.6875 60.8125,34.9375 57.25,34.9375z M101.25,29.1875L101.25,32.9375 104.8125,32.9375 104.8125,29.1875 101.25,29.1875z M57.25,29.1875L57.25,32.9375 60.8125,32.9375 60.8125,29.1875 57.25,29.1875z M101.25,23.375L101.25,27.1875 104.8125,27.1875 104.8125,23.375 101.25,23.375z M57.25,23.375L57.25,27.1875 60.8125,27.1875 60.8125,23.375 57.25,23.375z M55.5,21.5L106.5,21.5 106.5,57.5 55.5,57.5 55.5,21.5z" />
	<path stroke="none" stroke-width="1" fill="#AFA0BC" d="M63.5,27.125C63.5,25.6875,64.6875,24.5,66.125,24.5L95.9375,24.5C97.375,24.5,98.5,25.6875,98.5,27.125L98.5,51.9375C98.5,53.375,97.375,54.5,95.9375,54.5L66.125,54.5C64.6875,54.5,63.5,53.375,63.5,51.9375z" />
	<path stroke="none" stroke-width="1" fill="#6B567A" d="M112.375,66.3125L112.375,69.9375 115.875,69.9375 115.875,66.3125 112.375,66.3125z M69.1875,66.3125L69.1875,69.9375 72.6875,69.9375 72.6875,66.3125 69.1875,66.3125z M112.375,60.75L112.375,64.375 115.875,64.375 115.875,60.75 112.375,60.75z M69.1875,60.75L69.1875,64.375 72.6875,64.375 72.6875,60.75 69.1875,60.75z M112.375,55.125L112.375,58.75 115.875,58.75 115.875,55.125 112.375,55.125z M69.1875,55.125L69.1875,58.75 72.6875,58.75 72.6875,55.125 69.1875,55.125z M112.375,49.5625L112.375,53.1875 115.875,53.1875 115.875,49.5625 112.375,49.5625z M69.1875,49.5625L69.1875,53.1875 72.6875,53.1875 72.6875,49.5625 69.1875,49.5625z M112.375,43.9375L112.375,47.625 115.875,47.625 115.875,43.9375 112.375,43.9375z M69.1875,43.9375L69.1875,47.625 72.6875,47.625 72.6875,43.9375 69.1875,43.9375z M112.375,38.375L112.375,42 115.875,42 115.875,38.375 112.375,38.375z M69.1875,38.375L69.1875,42 72.6875,42 72.6875,38.375 69.1875,38.375z M67.5,36.5L117.5,36.5 117.5,71.5 67.5,71.5 67.5,36.5z" />
	<path stroke="none" stroke-width="1" fill="#AFA0BC" d="M74.5,42C74.5,40.625,75.625,39.5,77,39.5L108.0625,39.5C109.4375,39.5,110.5,40.625,110.5,42L110.5,66.0625C110.5,67.4375,109.4375,68.5,108.0625,68.5L77,68.5C75.625,68.5,74.5,67.4375,74.5,66.0625z" />
	<path stroke="none" stroke-width="1" fill="#6B567A" d="M123.375,81.1875L123.375,84.9375 126.875,84.9375 126.875,81.1875 123.375,81.1875z M80.1875,81.1875L80.1875,84.9375 83.6875,84.9375 83.6875,81.1875 80.1875,81.1875z M123.375,75.4375L123.375,79.1875 126.875,79.1875 126.875,75.4375 123.375,75.4375z M80.1875,75.4375L80.1875,79.1875 83.6875,79.1875 83.6875,75.4375 80.1875,75.4375z M123.375,69.6875L123.375,73.4375 126.875,73.4375 126.875,69.6875 123.375,69.6875z M80.1875,69.6875L80.1875,73.4375 83.6875,73.4375 83.6875,69.6875 80.1875,69.6875z M123.375,63.9375L123.375,67.6875 126.875,67.6875 126.875,63.9375 123.375,63.9375z M80.1875,63.9375L80.1875,67.6875 83.6875,67.6875 83.6875,63.9375 80.1875,63.9375z M123.375,58.1875L123.375,61.9375 126.875,61.9375 126.875,58.1875 123.375,58.1875z M80.1875,58.1875L80.1875,61.9375 83.6875,61.9375 83.6875,58.1875 80.1875,58.1875z M123.375,52.375L123.375,56.1875 126.875,56.1875 126.875,52.375 123.375,52.375z M80.1875,52.375L80.1875,56.1875 83.6875,56.1875 83.6875,52.375 80.1875,52.375z M78.5,50.5L128.5,50.5 128.5,86.5 78.5,86.5 78.5,50.5z" />
	<path stroke="none" stroke-width="1" fill="#AFA0BC" d="M85.5,56.125C85.5,54.6875,86.6875,53.5,88.125,53.5L118.9375,53.5C120.375,53.5,121.5,54.6875,121.5,56.125L121.5,80.9375C121.5,82.375,120.375,83.5,118.9375,83.5L88.125,83.5C86.6875,83.5,85.5,82.375,85.5,80.9375z" />
	<path stroke="#C00000" stroke-width="1" fill="#FF0000" d="M12.5,99C11.125,99,10,100.125,10,101.5L10,111.5C10,112.9375,11.125,114,12.5,114L59.5,114C60.9375,114,62,112.9375,62,111.5L62,101.5C62,100.125,60.9375,99,59.5,99z" />
</svg>
