<svg xmlns="http://www.w3.org/2000/svg" version="1.1" width="164px" height="163px" viewBox="0 0 164 163">
  <polygon points="0,141 0,0 142,0 142,141" style="fill-opacity:0;stroke:none;stroke-width:1" />
  <path stroke="#2F528F" stroke-width="1" fill="#4472C4" d="M57.4375,17.75L107.5,65.3125C109.9375,67.625,110,71.5,107.75,73.9375C107.6875,74.0625,107.625,74.125,107.5,74.1875L57.4375,121.6875C54.9375,124,51.0625,123.875,48.75,121.5C47.6875,120.3125,47,118.875,47,117.25L47,22.125C47,18.75,49.75,16,53.1875,16C54.75,16,56.3125,16.6875,57.4375,17.75z" />
  <polygon points="0,141 0,0 142,0 142,141" style="fill:#000;fill-opacity:0;stroke:#F2F2F2;stroke-width:1" />
</svg>
