<svg xmlns="http://www.w3.org/2000/svg" version="1.1" width="163px" height="163px" viewBox="0 0 163 163">
  <polygon points="0,141 0,0 141,0 141,141" style="fill:none;stroke:none;stroke-width:1" />
  <polygon points="11,48 59.25,34 132,34 83.8125,48" style="fill:#6B567A;stroke:none;stroke-width:1" />
  <polygon points="11,48 59.25,34 132,34 83.8125,48" style="fill:none;stroke:#000000;stroke-width:1" />
  <path stroke="#2F528F" stroke-width="1" fill="#4472C4" d="M31.4375,81L41.625,81C43.0625,81,44.1875,82.1875,44.1875,83.5625L44.1875,98.875 59.5,98.875C60.875,98.875,62,100,62,101.4375L62,111.625C62,113.0625,60.875,114.1875,59.5,114.1875L44.1875,114.1875 44.1875,129.5C44.1875,130.875,43.0625,132,41.625,132L31.4375,132C30,132,28.875,130.875,28.875,129.5L28.875,114.1875 13.5625,114.1875C12.1875,114.1875,11,113.0625,11,111.625L11,101.4375C11,100,12.1875,98.875,13.5625,98.875L28.875,98.875 28.875,83.5625C28.875,82.1875,30,81,31.4375,81z" />
</svg>
