<svg xmlns="http://www.w3.org/2000/svg" version="1.1" width="163px" height="163px" viewBox="0 0 163 163">
  <polygon points="141,0 141,141 0,141 0,0" style="fill:none;stroke:none;stroke-width:1" />
  <path stroke="#2F528F" stroke-width="1" fill="#4472C4" d="M31,81L41,81C42.4375,81,43.5,82.1875,43.5,83.5625L43.5,98.875 58.5,98.875C59.9375,98.875,61,100,61,101.4375L61,111.625C61,113.0625,59.9375,114.1875,58.5,114.1875L43.5,114.1875 43.5,129.5C43.5,130.875,42.4375,132,41,132L31,132C29.625,132,28.5,130.875,28.5,129.5L28.5,114.1875 13.5,114.1875C12.125,114.1875,11,113.0625,11,111.625L11,101.4375C11,100,12.125,98.875,13.5,98.875L28.5,98.875 28.5,83.5625C28.5,82.1875,29.625,81,31,81z" />
  <path stroke="#000000" stroke-width="1" fill="#6B567A" d="M91.1875,7L104.25,7 104.75,7.125C105.625,7.6875,106.5,8.6875,107.75,10.125C114.875,17,112.125,52.0625,113,72.5C113.25,75.25,110.625,77.6875,108.1875,77.875L105.8125,78.125 110.0625,79.875C110.75,80.5,111.25,81.25,111.625,82.125L112.1875,84.875 111.625,87.625C111.0625,88.9375,110.125,90,109,90.75L106.875,91.375 107.75,96.9375 106.75,107.0625C106.75,115.1875,104.375,125.5625,98.9375,130.9375C97.625,131.8125,95.9375,136,94.5625,129.3125C92.875,118.125,92.5,108.875,91.4375,98.6875L90.75,94.5C91.5625,92.625,92.9375,91,94.625,89.8125L96.75,89.1875 95.6875,87.625C95.3125,86.8125,95.125,85.875,95.125,84.875L95.125,84.875C95.125,82.9375,95.875,81.125,97.1875,79.875L101,78.3125 100,78.25C97.3125,77.6875,93.9375,76.25,93.75,74.1875C88.625,46.625,86,28.25,87.4375,13.1875C87.9375,12.125,88.5,9.25,89.8125,7.8125z" />
</svg>
