<svg xmlns="http://www.w3.org/2000/svg" version="1.1" width="163px" height="163px" viewBox="0 0 163 163">
  <polygon points="0,141 0,0 141,0 141,141" style="fill:none;stroke:none;stroke-width:1" />
  <polygon points="7.5,7.5 133.5,7.5 133.5,133.5 75.5625,133.5 75.5625,119.5 119.5,119.5 119.5,21.5625 21.5625,21.5625 21.5625,65.8125 7.5,65.8125" style="fill:#5A4967;stroke:none;stroke-width:1" />
  <path stroke="none" stroke-width="1" fill="#AFA0BC" d="M14.125,81.125L14.125,126.9375 59.9375,126.9375 59.9375,81.125 14.125,81.125z M7.5,74.5L66.5,74.5 66.5,133.5 7.5,133.5 7.5,74.5z" />
  <polygon points="107.625,65.3125 99.1875,56.875 78.9375,77.1875 62.125,60.375 82.375,40.125 74,31.6875 107.625,31.6875" style="fill:#4472C4;stroke:none;stroke-width:1" />
  <polygon points="107.625,65.3125 99.1875,56.875 78.9375,77.1875 62.125,60.375 82.375,40.125 74,31.6875 107.625,31.6875" style="fill:none;stroke:#2F528F;stroke-width:1.3125" />
  <polygon points="0,141 0,0 141,0 141,141" style="fill:#000;fill-opacity:0;stroke:#F2F2F2;stroke-width:1" />
</svg>
