<svg xmlns="http://www.w3.org/2000/svg" version="1.1" width="527px" height="527px" viewBox="0 0 527 527">
    <path stroke="#2F528F" stroke-width="1" fill="#4472C4" d="M261,138.375C193.3125,138.375,138.375,193.3125,138.375,261C138.375,328.75,193.3125,383.6875,261,383.6875C328.75,383.6875,383.6875,328.75,383.6875,261C383.6875,193.3125,328.75,138.375,261,138.375z M252.4375,0L269.625,0C276.1875,0,281.5,5.3125,281.5,11.875L281.5,74.875 298.8125,77.5C323.1875,82.5,345.8125,92.25,365.75,105.6875L378.1875,115 422.75,70.375C427.375,65.75,434.875,65.75,439.5,70.375L451.6875,82.5625C456.3125,87.1875,456.3125,94.6875,451.6875,99.3125L407.0625,143.875 416.375,156.3125C429.8125,176.25,439.5625,198.875,444.5625,223.25L447.1875,240.5625 510.1875,240.5625C516.75,240.5625,522,245.875,522,252.4375L522,269.625C522,276.1875,516.75,281.5,510.1875,281.5L447.1875,281.5 444.5625,298.8125C439.5625,323.1875,429.8125,345.8125,416.375,365.75L407.0625,378.1875 451.6875,422.75C456.3125,427.375,456.3125,434.875,451.6875,439.5L439.5,451.6875C434.875,456.3125,427.375,456.3125,422.75,451.6875L378.1875,407.0625 365.75,416.375C345.8125,429.8125,323.1875,439.5625,298.8125,444.5625L281.5,447.1875 281.5,510.1875C281.5,516.75,276.1875,522,269.625,522L252.4375,522C245.875,522,240.5625,516.75,240.5625,510.1875L240.5625,447.1875 223.25,444.5625C198.875,439.5625,176.25,429.8125,156.3125,416.375L143.875,407.0625 99.3125,451.6875C94.6875,456.3125,87.1875,456.3125,82.5625,451.6875L70.375,439.5C65.75,434.875,65.75,427.375,70.375,422.75L115,378.1875 105.6875,365.75C92.25,345.8125,82.5,323.1875,77.5,298.8125L74.875,281.5 11.875,281.5C5.3125,281.5,0,276.1875,0,269.625L0,252.4375C0,245.875,5.3125,240.5625,11.875,240.5625L74.875,240.5625 77.5,223.25C82.5,198.875,92.25,176.25,105.6875,156.3125L115,143.875 70.375,99.3125C65.75,94.6875,65.75,87.1875,70.375,82.5625L82.5625,70.375C84.875,68.0625,87.875,66.9375,90.9375,66.9375C93.9375,66.9375,97,68.0625,99.3125,70.375L143.875,115 156.3125,105.6875C176.25,92.25,198.875,82.5,223.25,77.5L240.5625,74.875 240.5625,11.875C240.5625,5.3125,245.875,0,252.4375,0z" />
</svg>