<svg xmlns="http://www.w3.org/2000/svg" version="1.1" width="313px" height="567px" viewBox="0 0 313 567">
  <path stroke="none" stroke-width="1" fill="#F4B183" d="M-0.5,155C-0.5,69.125,69.125,-0.5,155,-0.5C240.9375,-0.5,310.5,69.125,310.5,155C310.5,240.9375,240.9375,310.5,155,310.5C69.125,310.5,-0.5,240.9375,-0.5,155" />
  <path stroke="none" stroke-width="1" fill="#F8CBAD" d="M2.5,155C2.5,70.8125,70.8125,2.5,155,2.5C239.25,2.5,307.5,70.8125,307.5,155C307.5,239.25,239.25,307.5,155,307.5C70.8125,307.5,2.5,239.25,2.5,155" />
  <path stroke="none" stroke-width="1" fill="#404040" d="M98.5,267.5C98.5,248.75,116.6875,233.5,139,233.5C161.375,233.5,179.5,248.75,179.5,267.5C179.5,286.3125,161.375,301.5,139,301.5C116.6875,301.5,98.5,286.3125,98.5,267.5" />
  <path stroke="none" stroke-width="1" fill="#843C0C" d="M263.5,155C263.5,112.75,274.5,78.5,288,78.5C301.5625,78.5,312.5,112.75,312.5,155C312.5,197.25,301.5625,231.5,288,231.5C274.5,231.5,263.5,197.25,263.5,155" />
  <path stroke="#843C0C" stroke-width="1.3125" fill="#F8CBAD" d="M179.0625,393C184.625,383.4375,196.875,380.125,206.4375,385.6875L206.4375,385.6875C216,391.1875,219.3125,403.4375,213.75,413L152.0625,519.875C146.5625,529.4375,134.3125,532.6875,124.75,527.1875L124.75,527.1875C115.125,521.625,111.875,509.4375,117.375,499.8125z" />
  <path stroke="#843C0C" stroke-width="1" fill="#F4B183" d="M100,536C91.1875,536,84,528.875,84,520L84,520C84,511.1875,91.1875,504,100,504L198,504C206.875,504,214,511.1875,214,520L214,520C214,528.875,206.875,536,198,536z" />
  <path stroke="#843C0C" stroke-width="1.3125" fill="#F4B183" d="M116.875,281.9375C111.4375,269.25,117.3125,254.5625,130,249.125L130,249.125C142.6875,243.6875,157.375,249.5625,162.8125,262.25L218.875,393.25C224.3125,405.9375,218.4375,420.625,205.75,426.0625L205.75,426.0625C193.0625,431.5,178.375,425.625,172.9375,412.9375z" />
  <path stroke="#595959" stroke-width="1" fill="#7F7F7F" d="M131,273C131,268.0625,135.3125,264,140.5,264C145.75,264,150,268.0625,150,273C150,278,145.75,282,140.5,282C135.3125,282,131,278,131,273" />
  <path stroke="#595959" stroke-width="1" fill="#7F7F7F" d="M187,404.5C187,399.3125,191.0625,395,196,395C201,395,205,399.3125,205,404.5C205,409.75,201,414,196,414C191.0625,414,187,409.75,187,404.5" />
  <path stroke="#595959" stroke-width="1" fill="#7F7F7F" d="M124,519.5C124,514.3125,128.0625,510,133,510C138,510,142,514.3125,142,519.5C142,524.75,138,529,133,529C128.0625,529,124,524.75,124,519.5" />
</svg>